<svg width="200" height="201" viewBox="0 0 200 201" fill="none" xmlns="http://www.w3.org/2000/svg">
<rect y="0.182495" width="200" height="200" rx="44" fill="black"/>
<path d="M99.3545 34.2284C99.9531 34.0982 100.579 34.249 101.052 34.6385C101.324 34.8626 101.507 35.1384 101.547 35.1962C101.634 35.3221 101.724 35.4655 101.812 35.6112C101.989 35.9065 102.21 36.2981 102.465 36.7665C102.978 37.7083 103.671 39.0339 104.515 40.6805C106.204 43.9777 108.523 48.6131 111.268 54.16C116.759 65.2564 123.97 80.0294 131.295 95.1063C145.944 125.258 161.064 156.655 163.8 162.304C164.1 162.923 164.061 163.654 163.695 164.237C163.33 164.821 162.689 165.174 162.001 165.175L147.924 165.182C147.152 165.183 146.448 164.739 146.116 164.042L99.9541 67.0497C99.7149 67.5393 99.4682 68.0544 99.2178 68.58C98.7245 69.6149 98.2359 70.6603 97.8018 71.5917C97.3705 72.5167 96.9869 73.339 96.7139 73.913L96.7148 73.9139L86.8857 94.6005V94.6014L53.873 164.04C53.5413 164.737 52.8368 165.181 52.0645 165.181L37.998 165.169C37.3226 165.168 36.693 164.827 36.3242 164.261C35.9555 163.695 35.8975 162.98 36.1699 162.362C42.5314 147.93 51.5663 130.581 58.5049 116.318V116.317L97.9814 35.3065C98.2497 34.7559 98.756 34.3586 99.3545 34.2284Z" fill="white" stroke="white" stroke-width="4" stroke-linejoin="round"/>
</svg>
